<?xml version="1.0" encoding="UTF-8" standalone="no"?>
<!DOCTYPE svg PUBLIC "-//W3C//DTD SVG 1.1//EN"
 "http://www.w3.org/Graphics/SVG/1.1/DTD/svg11.dtd">
<!-- Generated by graphviz version 2.40.1 (20161225.0304)
 -->
<!-- Title: dependency&#45;cruiser output Pages: 1 -->
<svg width="652pt" height="598pt"
 viewBox="0.00 0.00 652.00 598.00" xmlns="http://www.w3.org/2000/svg" xmlns:xlink="http://www.w3.org/1999/xlink">
<g id="graph0" class="graph" transform="scale(1 1) rotate(0) translate(4 594)">
<title>dependency&#45;cruiser output</title>
<polygon fill="#ffffff" stroke="transparent" points="-4,4 -4,-594 648,-594 648,4 -4,4"/>
<g id="clust1" class="cluster">
<title>cluster_src</title>
<path fill="#ffffff" stroke="#000000" stroke-width="2" d="M20,-26C20,-26 624,-26 624,-26 630,-26 636,-32 636,-38 636,-38 636,-570 636,-570 636,-576 630,-582 624,-582 624,-582 20,-582 20,-582 14,-582 8,-576 8,-570 8,-570 8,-38 8,-38 8,-32 14,-26 20,-26"/>
<text text-anchor="middle" x="322" y="-570.8" font-family="Helvetica,sans-Serif" font-weight="bold" font-size="9.00" fill="#000000">src</text>
</g>
<g id="clust2" class="cluster">
<title>cluster_src/components</title>
<path fill="#ffffff" stroke="#000000" stroke-width="2" d="M28,-120C28,-120 448,-120 448,-120 454,-120 460,-126 460,-132 460,-132 460,-228 460,-228 460,-234 454,-240 448,-240 448,-240 28,-240 28,-240 22,-240 16,-234 16,-228 16,-228 16,-132 16,-132 16,-126 22,-120 28,-120"/>
<text text-anchor="middle" x="238" y="-228.8" font-family="Helvetica,sans-Serif" font-weight="bold" font-size="9.00" fill="#000000">components</text>
</g>
<g id="clust3" class="cluster">
<title>cluster_src/components/core</title>
<path fill="#ffffff" stroke="#000000" stroke-width="2" d="M255.5,-128C255.5,-128 440,-128 440,-128 446,-128 452,-134 452,-140 452,-140 452,-202 452,-202 452,-208 446,-214 440,-214 440,-214 255.5,-214 255.5,-214 249.5,-214 243.5,-208 243.5,-202 243.5,-202 243.5,-140 243.5,-140 243.5,-134 249.5,-128 255.5,-128"/>
<text text-anchor="middle" x="347.75" y="-202.8" font-family="Helvetica,sans-Serif" font-weight="bold" font-size="9.00" fill="#000000">core</text>
</g>
<g id="clust4" class="cluster">
<title>cluster_src/components/core/UserNameText</title>
<path fill="#ffffff" stroke="#000000" stroke-width="2" d="M263.5,-136C263.5,-136 432,-136 432,-136 438,-136 444,-142 444,-148 444,-148 444,-176 444,-176 444,-182 438,-188 432,-188 432,-188 263.5,-188 263.5,-188 257.5,-188 251.5,-182 251.5,-176 251.5,-176 251.5,-148 251.5,-148 251.5,-142 257.5,-136 263.5,-136"/>
<text text-anchor="middle" x="347.75" y="-176.8" font-family="Helvetica,sans-Serif" font-weight="bold" font-size="9.00" fill="#000000">UserNameText</text>
</g>
<g id="clust5" class="cluster">
<title>cluster_src/components/ui</title>
<path fill="#ffffff" stroke="#000000" stroke-width="2" d="M36,-128C36,-128 188,-128 188,-128 194,-128 200,-134 200,-140 200,-140 200,-202 200,-202 200,-208 194,-214 188,-214 188,-214 36,-214 36,-214 30,-214 24,-208 24,-202 24,-202 24,-140 24,-140 24,-134 30,-128 36,-128"/>
<text text-anchor="middle" x="112" y="-202.8" font-family="Helvetica,sans-Serif" font-weight="bold" font-size="9.00" fill="#000000">ui</text>
</g>
<g id="clust6" class="cluster">
<title>cluster_src/components/ui/Button</title>
<path fill="#ffffff" stroke="#000000" stroke-width="2" d="M44,-136C44,-136 180,-136 180,-136 186,-136 192,-142 192,-148 192,-148 192,-176 192,-176 192,-182 186,-188 180,-188 180,-188 44,-188 44,-188 38,-188 32,-182 32,-176 32,-176 32,-148 32,-148 32,-142 38,-136 44,-136"/>
<text text-anchor="middle" x="112" y="-176.8" font-family="Helvetica,sans-Serif" font-weight="bold" font-size="9.00" fill="#000000">Button</text>
</g>
<g id="clust7" class="cluster">
<title>cluster_src/screens</title>
<path fill="#ffffff" stroke="#000000" stroke-width="2" d="M220,-248C220,-248 616,-248 616,-248 622,-248 628,-254 628,-260 628,-260 628,-544 628,-544 628,-550 622,-556 616,-556 616,-556 220,-556 220,-556 214,-556 208,-550 208,-544 208,-544 208,-260 208,-260 208,-254 214,-248 220,-248"/>
<text text-anchor="middle" x="418" y="-544.8" font-family="Helvetica,sans-Serif" font-weight="bold" font-size="9.00" fill="#000000">screens</text>
</g>
<g id="clust8" class="cluster">
<title>cluster_src/screens/UsersScreen</title>
<path fill="#ffffff" stroke="#000000" stroke-width="2" d="M228,-256C228,-256 608,-256 608,-256 614,-256 620,-262 620,-268 620,-268 620,-518 620,-518 620,-524 614,-530 608,-530 608,-530 228,-530 228,-530 222,-530 216,-524 216,-518 216,-518 216,-268 216,-268 216,-262 222,-256 228,-256"/>
<text text-anchor="middle" x="418" y="-518.8" font-family="Helvetica,sans-Serif" font-weight="bold" font-size="9.00" fill="#000000">UsersScreen</text>
</g>
<g id="clust9" class="cluster">
<title>cluster_src/screens/UsersScreen/components</title>
<path fill="#ffffff" stroke="#000000" stroke-width="2" d="M361.5,-418C361.5,-418 577,-418 577,-418 583,-418 589,-424 589,-430 589,-430 589,-492 589,-492 589,-498 583,-504 577,-504 577,-504 361.5,-504 361.5,-504 355.5,-504 349.5,-498 349.5,-492 349.5,-492 349.5,-430 349.5,-430 349.5,-424 355.5,-418 361.5,-418"/>
<text text-anchor="middle" x="469.25" y="-492.8" font-family="Helvetica,sans-Serif" font-weight="bold" font-size="9.00" fill="#000000">components</text>
</g>
<g id="clust10" class="cluster">
<title>cluster_src/screens/UsersScreen/components/UserNameField</title>
<path fill="#ffffff" stroke="#000000" stroke-width="2" d="M369.5,-426C369.5,-426 569,-426 569,-426 575,-426 581,-432 581,-438 581,-438 581,-466 581,-466 581,-472 575,-478 569,-478 569,-478 369.5,-478 369.5,-478 363.5,-478 357.5,-472 357.5,-466 357.5,-466 357.5,-438 357.5,-438 357.5,-432 363.5,-426 369.5,-426"/>
<text text-anchor="middle" x="469.25" y="-466.8" font-family="Helvetica,sans-Serif" font-weight="bold" font-size="9.00" fill="#000000">UserNameField</text>
</g>
<g id="clust11" class="cluster">
<title>cluster_src/screens/UsersScreen/screens</title>
<path fill="#ffffff" stroke="#000000" stroke-width="2" d="M236,-290C236,-290 600,-290 600,-290 606,-290 612,-296 612,-302 612,-302 612,-398 612,-398 612,-404 606,-410 600,-410 600,-410 236,-410 236,-410 230,-410 224,-404 224,-398 224,-398 224,-302 224,-302 224,-296 230,-290 236,-290"/>
<text text-anchor="middle" x="418" y="-398.8" font-family="Helvetica,sans-Serif" font-weight="bold" font-size="9.00" fill="#000000">screens</text>
</g>
<g id="clust12" class="cluster">
<title>cluster_src/screens/UsersScreen/screens/EditUserScreen</title>
<path fill="#ffffff" stroke="#000000" stroke-width="2" d="M361.5,-298C361.5,-298 592,-298 592,-298 598,-298 604,-304 604,-310 604,-310 604,-372 604,-372 604,-378 598,-384 592,-384 592,-384 361.5,-384 361.5,-384 355.5,-384 349.5,-378 349.5,-372 349.5,-372 349.5,-310 349.5,-310 349.5,-304 355.5,-298 361.5,-298"/>
<text text-anchor="middle" x="476.75" y="-372.8" font-family="Helvetica,sans-Serif" font-weight="bold" font-size="9.00" fill="#000000">EditUserScreen</text>
</g>
<g id="clust13" class="cluster">
<title>cluster_src/screens/UsersScreen/screens/EditUserScreen/components</title>
<path fill="#ffffff" stroke="#000000" stroke-width="2" d="M369.5,-306C369.5,-306 584,-306 584,-306 590,-306 596,-312 596,-318 596,-318 596,-346 596,-346 596,-352 590,-358 584,-358 584,-358 369.5,-358 369.5,-358 363.5,-358 357.5,-352 357.5,-346 357.5,-346 357.5,-318 357.5,-318 357.5,-312 363.5,-306 369.5,-306"/>
<text text-anchor="middle" x="476.75" y="-346.8" font-family="Helvetica,sans-Serif" font-weight="bold" font-size="9.00" fill="#000000">components</text>
</g>
<g id="clust14" class="cluster">
<title>cluster_src/screens/UsersScreen/screens/NewUserScreen</title>
<path fill="#ffffff" stroke="#000000" stroke-width="2" d="M244,-302C244,-302 329,-302 329,-302 335,-302 341,-308 341,-314 341,-314 341,-342 341,-342 341,-348 335,-354 329,-354 329,-354 244,-354 244,-354 238,-354 232,-348 232,-342 232,-342 232,-314 232,-314 232,-308 238,-302 244,-302"/>
<text text-anchor="middle" x="286.5" y="-342.8" font-family="Helvetica,sans-Serif" font-weight="bold" font-size="9.00" fill="#000000">NewUserScreen</text>
</g>
<!-- src/App.css -->
<g id="node1" class="node">
<title>src/App.css</title>
<g id="a_node1"><a xlink:href="src/App.css" xlink:title="App.css">
<path fill="#ffffcc" stroke="#000000" d="M307.5,-52C307.5,-52 265.5,-52 265.5,-52 262.5,-52 259.5,-49 259.5,-46 259.5,-46 259.5,-40 259.5,-40 259.5,-37 262.5,-34 265.5,-34 265.5,-34 307.5,-34 307.5,-34 310.5,-34 313.5,-37 313.5,-40 313.5,-40 313.5,-46 313.5,-46 313.5,-49 310.5,-52 307.5,-52"/>
<text text-anchor="middle" x="286.5" y="-40.8" font-family="Helvetica,sans-Serif" font-size="9.00" fill="#000000">App.css</text>
</a>
</g>
</g>
<!-- src/App.js -->
<g id="node2" class="node">
<title>src/App.js</title>
<g id="a_node2"><a xlink:href="src/App.js" xlink:title="App.js">
<path fill="#ffffcc" stroke="#000000" d="M178,-52C178,-52 136,-52 136,-52 133,-52 130,-49 130,-46 130,-46 130,-40 130,-40 130,-37 133,-34 136,-34 136,-34 178,-34 178,-34 181,-34 184,-37 184,-40 184,-40 184,-46 184,-46 184,-49 181,-52 178,-52"/>
<text text-anchor="middle" x="157" y="-40.8" font-family="Helvetica,sans-Serif" font-size="9.00" fill="#000000">App.js</text>
</a>
</g>
</g>
<!-- src/App.js&#45;&gt;src/App.css -->
<g id="edge1" class="edge">
<title>src/App.js&#45;&gt;src/App.css</title>
<path fill="none" stroke="#000000" stroke-width="2" stroke-opacity="0.200000" d="M184.1474,-43C203.0548,-43 228.5085,-43 249.3021,-43"/>
<polygon fill="#000000" fill-opacity="0.200000" stroke="#000000" stroke-width="2" stroke-opacity="0.200000" points="249.3883,-46.5001 259.3883,-43 249.3883,-39.5001 249.3883,-46.5001"/>
</g>
<!-- src/logo.svg -->
<g id="node10" class="node">
<title>src/logo.svg</title>
<g id="a_node10"><a xlink:href="src/logo.svg" xlink:title="logo.svg">
<path fill="#ffffcc" stroke="#000000" d="M307.5,-82C307.5,-82 265.5,-82 265.5,-82 262.5,-82 259.5,-79 259.5,-76 259.5,-76 259.5,-70 259.5,-70 259.5,-67 262.5,-64 265.5,-64 265.5,-64 307.5,-64 307.5,-64 310.5,-64 313.5,-67 313.5,-70 313.5,-70 313.5,-76 313.5,-76 313.5,-79 310.5,-82 307.5,-82"/>
<text text-anchor="middle" x="286.5" y="-70.8" font-family="Helvetica,sans-Serif" font-size="9.00" fill="#000000">logo.svg</text>
</a>
</g>
</g>
<!-- src/App.js&#45;&gt;src/logo.svg -->
<g id="edge2" class="edge">
<title>src/App.js&#45;&gt;src/logo.svg</title>
<path fill="none" stroke="#000000" stroke-width="2" stroke-opacity="0.200000" d="M184.1297,-51.5111C191.8059,-53.7741 200.1959,-56.1114 208,-58 221.4078,-61.2446 236.2414,-64.2315 249.371,-66.6714"/>
<polygon fill="#000000" fill-opacity="0.200000" stroke="#000000" stroke-width="2" stroke-opacity="0.200000" points="249.0113,-70.1632 259.4756,-68.5053 250.2614,-63.2757 249.0113,-70.1632"/>
</g>
<!-- src/App.test.js -->
<g id="node3" class="node">
<title>src/App.test.js</title>
<g id="a_node3"><a xlink:href="src/App.test.js" xlink:title="App.test.js">
<path fill="#ffffcc" stroke="#000000" d="M90.5,-82C90.5,-82 43.5,-82 43.5,-82 40.5,-82 37.5,-79 37.5,-76 37.5,-76 37.5,-70 37.5,-70 37.5,-67 40.5,-64 43.5,-64 43.5,-64 90.5,-64 90.5,-64 93.5,-64 96.5,-67 96.5,-70 96.5,-70 96.5,-76 96.5,-76 96.5,-79 93.5,-82 90.5,-82"/>
<text text-anchor="middle" x="67" y="-70.8" font-family="Helvetica,sans-Serif" font-size="9.00" fill="#000000">App.test.js</text>
</a>
</g>
</g>
<!-- src/App.test.js&#45;&gt;src/App.js -->
<g id="edge3" class="edge">
<title>src/App.test.js&#45;&gt;src/App.js</title>
<path fill="none" stroke="#000000" stroke-width="2" stroke-opacity="0.200000" d="M94.003,-63.999C102.204,-61.2653 111.3599,-58.2134 120.095,-55.3017"/>
<polygon fill="#000000" fill-opacity="0.200000" stroke="#000000" stroke-width="2" stroke-opacity="0.200000" points="121.325,-58.5811 129.705,-52.0983 119.1114,-51.9403 121.325,-58.5811"/>
</g>
<!-- src/components/core/UserNameText/UserNameText.js -->
<g id="node4" class="node">
<title>src/components/core/UserNameText/UserNameText.js</title>
<g id="a_node4"><a xlink:href="src/components/core/UserNameText/UserNameText.js" xlink:title="UserNameText.js">
<path fill="#ffffcc" stroke="#000000" d="M430,-162C430,-162 355,-162 355,-162 352,-162 349,-159 349,-156 349,-156 349,-150 349,-150 349,-147 352,-144 355,-144 355,-144 430,-144 430,-144 433,-144 436,-147 436,-150 436,-150 436,-156 436,-156 436,-159 433,-162 430,-162"/>
<text text-anchor="middle" x="392.5" y="-150.8" font-family="Helvetica,sans-Serif" font-size="9.00" fill="#000000">UserNameText.js</text>
</a>
</g>
</g>
<!-- src/screens/UsersScreen/UsersScreen.js -->
<g id="node11" class="node">
<title>src/screens/UsersScreen/UsersScreen.js</title>
<g id="a_node11"><a xlink:href="src/screens/UsersScreen/UsersScreen.js" xlink:title="UsersScreen.js">
<path fill="#ffffcc" stroke="#000000" d="M320,-282C320,-282 253,-282 253,-282 250,-282 247,-279 247,-276 247,-276 247,-270 247,-270 247,-267 250,-264 253,-264 253,-264 320,-264 320,-264 323,-264 326,-267 326,-270 326,-270 326,-276 326,-276 326,-279 323,-282 320,-282"/>
<text text-anchor="middle" x="286.5" y="-270.8" font-family="Helvetica,sans-Serif" font-size="9.00" fill="#000000">UsersScreen.js</text>
</a>
</g>
</g>
<!-- src/components/core/UserNameText/UserNameText.js&#45;&gt;src/screens/UsersScreen/UsersScreen.js -->
<g id="edge4" class="edge">
<title>src/components/core/UserNameText/UserNameText.js&#45;&gt;src/screens/UsersScreen/UsersScreen.js</title>
<path fill="none" stroke="#000000" stroke-width="2" stroke-opacity="0.200000" d="M384.4403,-162.1242C366.7044,-182.2026 324.0689,-230.4692 301.3454,-256.1939"/>
<polygon fill="#000000" fill-opacity="0.200000" stroke="#000000" stroke-width="2" stroke-opacity="0.200000" points="298.4644,-254.1686 294.4672,-263.9805 303.7108,-258.8029 298.4644,-254.1686"/>
</g>
<!-- src/components/core/UserNameText/index.js -->
<g id="node5" class="node">
<title>src/components/core/UserNameText/index.js</title>
<g id="a_node5"><a xlink:href="src/components/core/UserNameText/index.js" xlink:title="index.js">
<path fill="#ffffcc" stroke="#000000" d="M307.5,-162C307.5,-162 265.5,-162 265.5,-162 262.5,-162 259.5,-159 259.5,-156 259.5,-156 259.5,-150 259.5,-150 259.5,-147 262.5,-144 265.5,-144 265.5,-144 307.5,-144 307.5,-144 310.5,-144 313.5,-147 313.5,-150 313.5,-150 313.5,-156 313.5,-156 313.5,-159 310.5,-162 307.5,-162"/>
<text text-anchor="middle" x="286.5" y="-150.8" font-family="Helvetica,sans-Serif" font-size="9.00" fill="#000000">index.js</text>
</a>
</g>
</g>
<!-- src/components/core/UserNameText/index.js&#45;&gt;src/components/core/UserNameText/UserNameText.js -->
<g id="edge5" class="edge">
<title>src/components/core/UserNameText/index.js&#45;&gt;src/components/core/UserNameText/UserNameText.js</title>
<path fill="none" stroke="#000000" stroke-width="2" stroke-opacity="0.200000" d="M313.5225,-153C321.1937,-153 329.8294,-153 338.5007,-153"/>
<polygon fill="#000000" fill-opacity="0.200000" stroke="#000000" stroke-width="2" stroke-opacity="0.200000" points="338.641,-156.5001 348.6409,-153 338.6409,-149.5001 338.641,-156.5001"/>
</g>
<!-- src/components/ui/Button/Button.js -->
<g id="node6" class="node">
<title>src/components/ui/Button/Button.js</title>
<g id="a_node6"><a xlink:href="src/components/ui/Button/Button.js" xlink:title="Button.js">
<path fill="#ffffcc" stroke="#000000" d="M178,-162C178,-162 136,-162 136,-162 133,-162 130,-159 130,-156 130,-156 130,-150 130,-150 130,-147 133,-144 136,-144 136,-144 178,-144 178,-144 181,-144 184,-147 184,-150 184,-150 184,-156 184,-156 184,-159 181,-162 178,-162"/>
<text text-anchor="middle" x="157" y="-150.8" font-family="Helvetica,sans-Serif" font-size="9.00" fill="#000000">Button.js</text>
</a>
</g>
</g>
<!-- src/components/ui/Button/Button.js&#45;&gt;src/components/core/UserNameText/index.js -->
<g id="edge6" class="edge">
<title>src/components/ui/Button/Button.js&#45;&gt;src/components/core/UserNameText/index.js</title>
<path fill="none" stroke="#000000" stroke-width="2" stroke-opacity="0.200000" d="M184.1474,-153C203.0548,-153 228.5085,-153 249.3021,-153"/>
<polygon fill="#000000" fill-opacity="0.200000" stroke="#000000" stroke-width="2" stroke-opacity="0.200000" points="249.3883,-156.5001 259.3883,-153 249.3883,-149.5001 249.3883,-156.5001"/>
</g>
<!-- src/components/ui/Button/Button.js&#45;&gt;src/screens/UsersScreen/UsersScreen.js -->
<g id="edge7" class="edge">
<title>src/components/ui/Button/Button.js&#45;&gt;src/screens/UsersScreen/UsersScreen.js</title>
<path fill="none" stroke="#000000" stroke-width="2" stroke-opacity="0.200000" d="M166.7335,-162.0195C188.5766,-182.2602 241.736,-231.5198 269.2953,-257.0574"/>
<polygon fill="#000000" fill-opacity="0.200000" stroke="#000000" stroke-width="2" stroke-opacity="0.200000" points="266.9396,-259.6462 276.6535,-263.8758 271.6974,-254.5116 266.9396,-259.6462"/>
</g>
<!-- src/components/ui/Button/index.js -->
<g id="node7" class="node">
<title>src/components/ui/Button/index.js</title>
<g id="a_node7"><a xlink:href="src/components/ui/Button/index.js" xlink:title="index.js">
<path fill="#ffffcc" stroke="#000000" d="M88,-162C88,-162 46,-162 46,-162 43,-162 40,-159 40,-156 40,-156 40,-150 40,-150 40,-147 43,-144 46,-144 46,-144 88,-144 88,-144 91,-144 94,-147 94,-150 94,-150 94,-156 94,-156 94,-159 91,-162 88,-162"/>
<text text-anchor="middle" x="67" y="-150.8" font-family="Helvetica,sans-Serif" font-size="9.00" fill="#000000">index.js</text>
</a>
</g>
</g>
<!-- src/components/ui/Button/index.js&#45;&gt;src/components/ui/Button/Button.js -->
<g id="edge8" class="edge">
<title>src/components/ui/Button/index.js&#45;&gt;src/components/ui/Button/Button.js</title>
<path fill="none" stroke="#000000" stroke-width="2" stroke-opacity="0.200000" d="M94.003,-153C102.0277,-153 110.9665,-153 119.5309,-153"/>
<polygon fill="#000000" fill-opacity="0.200000" stroke="#000000" stroke-width="2" stroke-opacity="0.200000" points="119.7051,-156.5001 129.705,-153 119.705,-149.5001 119.7051,-156.5001"/>
</g>
<!-- src/index.css -->
<g id="node8" class="node">
<title>src/index.css</title>
<g id="a_node8"><a xlink:href="src/index.css" xlink:title="index.css">
<path fill="#ffffcc" stroke="#000000" d="M178.5,-82C178.5,-82 135.5,-82 135.5,-82 132.5,-82 129.5,-79 129.5,-76 129.5,-76 129.5,-70 129.5,-70 129.5,-67 132.5,-64 135.5,-64 135.5,-64 178.5,-64 178.5,-64 181.5,-64 184.5,-67 184.5,-70 184.5,-70 184.5,-76 184.5,-76 184.5,-79 181.5,-82 178.5,-82"/>
<text text-anchor="middle" x="157" y="-70.8" font-family="Helvetica,sans-Serif" font-size="9.00" fill="#000000">index.css</text>
</a>
</g>
</g>
<!-- src/index.js -->
<g id="node9" class="node">
<title>src/index.js</title>
<g id="a_node9"><a xlink:href="src/index.js" xlink:title="index.js">
<path fill="#ffffcc" stroke="#000000" d="M88,-112C88,-112 46,-112 46,-112 43,-112 40,-109 40,-106 40,-106 40,-100 40,-100 40,-97 43,-94 46,-94 46,-94 88,-94 88,-94 91,-94 94,-97 94,-100 94,-100 94,-106 94,-106 94,-109 91,-112 88,-112"/>
<text text-anchor="middle" x="67" y="-100.8" font-family="Helvetica,sans-Serif" font-size="9.00" fill="#000000">index.js</text>
</a>
</g>
</g>
<!-- src/index.js&#45;&gt;src/App.js -->
<g id="edge9" class="edge">
<title>src/index.js&#45;&gt;src/App.js</title>
<path fill="none" stroke="#000000" stroke-width="2" stroke-opacity="0.200000" d="M94.3173,-93.8192C97.116,-92.1662 99.7517,-90.2393 102,-88 112.2958,-77.7454 104.3919,-67.9312 115,-58 116.6992,-56.4092 118.5785,-54.9852 120.5722,-53.7107"/>
<polygon fill="#000000" fill-opacity="0.200000" stroke="#000000" stroke-width="2" stroke-opacity="0.200000" points="122.4947,-56.6608 129.8415,-49.027 119.3378,-50.413 122.4947,-56.6608"/>
</g>
<!-- src/index.js&#45;&gt;src/index.css -->
<g id="edge10" class="edge">
<title>src/index.js&#45;&gt;src/index.css</title>
<path fill="none" stroke="#000000" stroke-width="2" stroke-opacity="0.200000" d="M94.003,-93.999C102.204,-91.2653 111.3599,-88.2134 120.095,-85.3017"/>
<polygon fill="#000000" fill-opacity="0.200000" stroke="#000000" stroke-width="2" stroke-opacity="0.200000" points="121.325,-88.5811 129.705,-82.0983 119.1114,-81.9403 121.325,-88.5811"/>
</g>
<!-- src/serviceWorker.js -->
<g id="node17" class="node">
<title>src/serviceWorker.js</title>
<g id="a_node17"><a xlink:href="src/serviceWorker.js" xlink:title="serviceWorker.js">
<path fill="#ffffcc" stroke="#000000" d="M193,-112C193,-112 121,-112 121,-112 118,-112 115,-109 115,-106 115,-106 115,-100 115,-100 115,-97 118,-94 121,-94 121,-94 193,-94 193,-94 196,-94 199,-97 199,-100 199,-100 199,-106 199,-106 199,-109 196,-112 193,-112"/>
<text text-anchor="middle" x="157" y="-100.8" font-family="Helvetica,sans-Serif" font-size="9.00" fill="#000000">serviceWorker.js</text>
</a>
</g>
</g>
<!-- src/index.js&#45;&gt;src/serviceWorker.js -->
<g id="edge11" class="edge">
<title>src/index.js&#45;&gt;src/serviceWorker.js</title>
<path fill="none" stroke="#000000" stroke-width="2" stroke-opacity="0.200000" d="M94.003,-103C97.3669,-103 100.8914,-103 104.4817,-103"/>
<polygon fill="#000000" fill-opacity="0.200000" stroke="#000000" stroke-width="2" stroke-opacity="0.200000" points="104.6951,-106.5001 114.695,-103 104.695,-99.5001 104.6951,-106.5001"/>
</g>
<!-- src/screens/UsersScreen/components/UserNameField/UserNameField.js -->
<g id="node12" class="node">
<title>src/screens/UsersScreen/components/UserNameField/UserNameField.js</title>
<g id="a_node12"><a xlink:href="src/screens/UsersScreen/components/UserNameField/UserNameField.js" xlink:title="UserNameField.js">
<path fill="#ffffcc" stroke="#000000" d="M567,-452C567,-452 489,-452 489,-452 486,-452 483,-449 483,-446 483,-446 483,-440 483,-440 483,-437 486,-434 489,-434 489,-434 567,-434 567,-434 570,-434 573,-437 573,-440 573,-440 573,-446 573,-446 573,-449 570,-452 567,-452"/>
<text text-anchor="middle" x="528" y="-440.8" font-family="Helvetica,sans-Serif" font-size="9.00" fill="#000000">UserNameField.js</text>
</a>
</g>
</g>
<!-- src/screens/UsersScreen/components/UserNameField/index.js -->
<g id="node13" class="node">
<title>src/screens/UsersScreen/components/UserNameField/index.js</title>
<g id="a_node13"><a xlink:href="src/screens/UsersScreen/components/UserNameField/index.js" xlink:title="index.js">
<path fill="#ffffcc" stroke="#000000" d="M413.5,-452C413.5,-452 371.5,-452 371.5,-452 368.5,-452 365.5,-449 365.5,-446 365.5,-446 365.5,-440 365.5,-440 365.5,-437 368.5,-434 371.5,-434 371.5,-434 413.5,-434 413.5,-434 416.5,-434 419.5,-437 419.5,-440 419.5,-440 419.5,-446 419.5,-446 419.5,-449 416.5,-452 413.5,-452"/>
<text text-anchor="middle" x="392.5" y="-440.8" font-family="Helvetica,sans-Serif" font-size="9.00" fill="#000000">index.js</text>
</a>
</g>
</g>
<!-- src/screens/UsersScreen/components/UserNameField/index.js&#45;&gt;src/screens/UsersScreen/components/UserNameField/UserNameField.js -->
<g id="edge12" class="edge">
<title>src/screens/UsersScreen/components/UserNameField/index.js&#45;&gt;src/screens/UsersScreen/components/UserNameField/UserNameField.js</title>
<path fill="none" stroke="#000000" stroke-width="2" stroke-opacity="0.200000" d="M419.5948,-443C434.8431,-443 454.4515,-443 472.7898,-443"/>
<polygon fill="#000000" fill-opacity="0.200000" stroke="#000000" stroke-width="2" stroke-opacity="0.200000" points="472.8113,-446.5001 482.8113,-443 472.8113,-439.5001 472.8113,-446.5001"/>
</g>
<!-- src/screens/UsersScreen/screens/EditUserScreen/components/PasswordFieldEditable.js -->
<g id="node14" class="node">
<title>src/screens/UsersScreen/screens/EditUserScreen/components/PasswordFieldEditable.js</title>
<g id="a_node14"><a xlink:href="src/screens/UsersScreen/screens/EditUserScreen/components/PasswordFieldEditable.js" xlink:title="PasswordFieldEditable.js">
<path fill="#ffffcc" stroke="#000000" d="M582,-332C582,-332 474,-332 474,-332 471,-332 468,-329 468,-326 468,-326 468,-320 468,-320 468,-317 471,-314 474,-314 474,-314 582,-314 582,-314 585,-314 588,-317 588,-320 588,-320 588,-326 588,-326 588,-329 585,-332 582,-332"/>
<text text-anchor="middle" x="528" y="-320.8" font-family="Helvetica,sans-Serif" font-size="9.00" fill="#000000">PasswordFieldEditable.js</text>
</a>
</g>
</g>
<!-- src/screens/UsersScreen/screens/EditUserScreen/components/index.js -->
<g id="node15" class="node">
<title>src/screens/UsersScreen/screens/EditUserScreen/components/index.js</title>
<g id="a_node15"><a xlink:href="src/screens/UsersScreen/screens/EditUserScreen/components/index.js" xlink:title="index.js">
<path fill="#ffffcc" stroke="#000000" d="M413.5,-332C413.5,-332 371.5,-332 371.5,-332 368.5,-332 365.5,-329 365.5,-326 365.5,-326 365.5,-320 365.5,-320 365.5,-317 368.5,-314 371.5,-314 371.5,-314 413.5,-314 413.5,-314 416.5,-314 419.5,-317 419.5,-320 419.5,-320 419.5,-326 419.5,-326 419.5,-329 416.5,-332 413.5,-332"/>
<text text-anchor="middle" x="392.5" y="-320.8" font-family="Helvetica,sans-Serif" font-size="9.00" fill="#000000">index.js</text>
</a>
</g>
</g>
<!-- src/screens/UsersScreen/screens/EditUserScreen/components/index.js&#45;&gt;src/screens/UsersScreen/screens/EditUserScreen/components/PasswordFieldEditable.js -->
<g id="edge13" class="edge">
<title>src/screens/UsersScreen/screens/EditUserScreen/components/index.js&#45;&gt;src/screens/UsersScreen/screens/EditUserScreen/components/PasswordFieldEditable.js</title>
<path fill="none" stroke="#000000" stroke-width="2" stroke-opacity="0.200000" d="M419.5948,-323C430.6726,-323 444.0517,-323 457.5731,-323"/>
<polygon fill="#000000" fill-opacity="0.200000" stroke="#000000" stroke-width="2" stroke-opacity="0.200000" points="457.9051,-326.5001 467.9051,-323 457.905,-319.5001 457.9051,-326.5001"/>
</g>
<!-- src/screens/UsersScreen/screens/NewUserScreen/NewUserScreen.js -->
<g id="node16" class="node">
<title>src/screens/UsersScreen/screens/NewUserScreen/NewUserScreen.js</title>
<g id="a_node16"><a xlink:href="src/screens/UsersScreen/screens/NewUserScreen/NewUserScreen.js" xlink:title="NewUserScreen.js">
<path fill="#ffffcc" stroke="#000000" d="M327,-328C327,-328 246,-328 246,-328 243,-328 240,-325 240,-322 240,-322 240,-316 240,-316 240,-313 243,-310 246,-310 246,-310 327,-310 327,-310 330,-310 333,-313 333,-316 333,-316 333,-322 333,-322 333,-325 330,-328 327,-328"/>
<text text-anchor="middle" x="286.5" y="-316.8" font-family="Helvetica,sans-Serif" font-size="9.00" fill="#000000">NewUserScreen.js</text>
</a>
</g>
</g>
<!-- src/screens/UsersScreen/screens/NewUserScreen/NewUserScreen.js&#45;&gt;src/components/core/UserNameText/index.js -->
<g id="edge15" class="edge">
<title>src/screens/UsersScreen/screens/NewUserScreen/NewUserScreen.js&#45;&gt;src/components/core/UserNameText/index.js</title>
<path fill="none" stroke="#000000" stroke-width="2" stroke-opacity="0.200000" d="M239.8213,-322.48C223.7176,-320.8406 208.5573,-315.0519 204,-300 188.4082,-248.5039 237.7624,-195.1558 266.8198,-169.1758"/>
<polygon fill="#000000" fill-opacity="0.200000" stroke="#000000" stroke-width="2" stroke-opacity="0.200000" points="269.4803,-171.502 274.7495,-162.3103 264.8984,-166.2099 269.4803,-171.502"/>
</g>
<!-- src/screens/UsersScreen/screens/NewUserScreen/NewUserScreen.js&#45;&gt;src/screens/UsersScreen/components/UserNameField/index.js -->
<g id="edge16" class="edge">
<title>src/screens/UsersScreen/screens/NewUserScreen/NewUserScreen.js&#45;&gt;src/screens/UsersScreen/components/UserNameField/index.js</title>
<path fill="none" stroke="#000000" stroke-width="2" stroke-opacity="0.200000" d="M294.4672,-328.3202C312.2799,-349.1576 355.5355,-399.7585 378.1645,-426.2302"/>
<polygon fill="#000000" fill-opacity="0.200000" stroke="#000000" stroke-width="2" stroke-opacity="0.200000" points="375.5701,-428.5817 384.7284,-433.9087 380.891,-424.0332 375.5701,-428.5817"/>
</g>
<!-- src/screens/UsersScreen/screens/NewUserScreen/NewUserScreen.js&#45;&gt;src/screens/UsersScreen/screens/EditUserScreen/components/index.js -->
<g id="edge17" class="edge">
<title>src/screens/UsersScreen/screens/NewUserScreen/NewUserScreen.js&#45;&gt;src/screens/UsersScreen/screens/EditUserScreen/components/index.js</title>
<path fill="none" stroke="#000000" stroke-width="2" stroke-opacity="0.200000" d="M333.3017,-320.7661C340.6797,-321.0445 348.2202,-321.3291 355.3406,-321.5978"/>
<polygon fill="#000000" fill-opacity="0.200000" stroke="#000000" stroke-width="2" stroke-opacity="0.200000" points="355.2796,-325.0979 365.4045,-321.9775 355.5436,-318.1028 355.2796,-325.0979"/>
</g>
<!-- ✖ -->
<g id="node19" class="node">
<title>✖</title>
<path fill="#ffffcc" stroke="#ff0000" d="M413.5,-18C413.5,-18 371.5,-18 371.5,-18 368.5,-18 365.5,-15 365.5,-12 365.5,-12 365.5,-6 365.5,-6 365.5,-3 368.5,0 371.5,0 371.5,0 413.5,0 413.5,0 416.5,0 419.5,-3 419.5,-6 419.5,-6 419.5,-12 419.5,-12 419.5,-15 416.5,-18 413.5,-18"/>
<text text-anchor="middle" x="392.5" y="-6.8" font-family="Helvetica,sans-Serif" font-size="9.00" fill="#ff0000">✖</text>
</g>
<!-- src/screens/UsersScreen/screens/NewUserScreen/NewUserScreen.js&#45;&gt;✖ -->
<g id="edge14" class="edge">
<title>src/screens/UsersScreen/screens/NewUserScreen/NewUserScreen.js&#45;&gt;✖</title>
<path fill="none" stroke="#000000" stroke-width="2" stroke-opacity="0.200000" d="M333.1227,-312.6756C336.0845,-310.8935 338.7671,-308.6976 341,-306 353.2699,-291.1766 345.3318,-151.8899 349,-133 356.5389,-94.1777 373.8135,-51.0754 384.1823,-27.2901"/>
<polygon fill="#000000" fill-opacity="0.200000" stroke="#000000" stroke-width="2" stroke-opacity="0.200000" points="387.4143,-28.6359 388.2779,-18.0763 381.0177,-25.7926 387.4143,-28.6359"/>
</g>
<!-- src/setupTests.js -->
<g id="node18" class="node">
<title>src/setupTests.js</title>
<g id="a_node18"><a xlink:href="src/setupTests.js" xlink:title="setupTests.js">
<path fill="#ffffcc" stroke="#000000" d="M96,-52C96,-52 38,-52 38,-52 35,-52 32,-49 32,-46 32,-46 32,-40 32,-40 32,-37 35,-34 38,-34 38,-34 96,-34 96,-34 99,-34 102,-37 102,-40 102,-40 102,-46 102,-46 102,-49 99,-52 96,-52"/>
<text text-anchor="middle" x="67" y="-40.8" font-family="Helvetica,sans-Serif" font-size="9.00" fill="#000000">setupTests.js</text>
</a>
</g>
</g>
</g>
</svg>
